<svg width="15" height="15" viewBox="0 0 15 15" fill="none" xmlns="http://www.w3.org/2000/svg">
<path d="M8.914 7.5L14.707 1.707C15.097 1.317 15.097 0.683997 14.707 0.292997C14.317 -0.0980028 13.684 -0.0970028 13.293 0.292997L7.5 6.086L1.707 0.292997C1.317 -0.0970028 0.683997 -0.0970028 0.292997 0.292997C-0.0980028 0.682997 -0.0970028 1.316 0.292997 1.707L6.086 7.5L0.292997 13.293C-0.0970028 13.683 -0.0970028 14.316 0.292997 14.707C0.487997 14.902 0.742997 15 0.999997 15C1.257 15 1.512 14.902 1.707 14.707L7.5 8.914L13.293 14.707C13.488 14.902 13.743 15 14 15C14.257 15 14.512 14.902 14.707 14.707C15.097 14.317 15.097 13.684 14.707 13.293L8.914 7.5Z" fill="white"/>
</svg>
