<svg width="20" height="20" viewBox="0 0 20 20" fill="none" xmlns="http://www.w3.org/2000/svg">
<path d="M17.708 0H2.292C1.028 0 0 1.028 0 2.292V17.708C0 18.972 1.028 20 2.292 20H17.708C18.972 20 20 18.972 20 17.708V2.292C20 1.028 18.972 0 17.708 0ZM18.5 17.708C18.5 18.145 18.145 18.5 17.708 18.5H2.292C1.855 18.5 1.5 18.145 1.5 17.708V4.418C1.5 3.981 1.854 3.628 2.29 3.626H17.71C18.146 3.626 18.5 3.981 18.5 4.416V17.71V17.708Z" fill="#4F5857"/>
<path d="M5.03199 8.035C5.74168 8.035 6.31699 7.45968 6.31699 6.75C6.31699 6.04031 5.74168 5.465 5.03199 5.465C4.32231 5.465 3.74699 6.04031 3.74699 6.75C3.74699 7.45968 4.32231 8.035 5.03199 8.035Z" fill="#4F5857"/>
<path d="M5.03199 12.441C5.74168 12.441 6.31699 11.8657 6.31699 11.156C6.31699 10.4463 5.74168 9.871 5.03199 9.871C4.32231 9.871 3.74699 10.4463 3.74699 11.156C3.74699 11.8657 4.32231 12.441 5.03199 12.441Z" fill="#4F5857"/>
<path d="M14.968 8.035C15.6777 8.035 16.253 7.45968 16.253 6.75C16.253 6.04031 15.6777 5.465 14.968 5.465C14.2583 5.465 13.683 6.04031 13.683 6.75C13.683 7.45968 14.2583 8.035 14.968 8.035Z" fill="#4F5857"/>
<path d="M14.968 12.441C15.6777 12.441 16.253 11.8657 16.253 11.156C16.253 10.4463 15.6777 9.871 14.968 9.871C14.2583 9.871 13.683 10.4463 13.683 11.156C13.683 11.8657 14.2583 12.441 14.968 12.441Z" fill="#4F5857"/>
<path d="M10 8.035C10.7097 8.035 11.285 7.45968 11.285 6.75C11.285 6.04031 10.7097 5.465 10 5.465C9.29031 5.465 8.715 6.04031 8.715 6.75C8.715 7.45968 9.29031 8.035 10 8.035Z" fill="#4F5857"/>
<path d="M10 12.441C10.7097 12.441 11.285 11.8657 11.285 11.156C11.285 10.4463 10.7097 9.871 10 9.871C9.29031 9.871 8.715 10.4463 8.715 11.156C8.715 11.8657 9.29031 12.441 10 12.441Z" fill="#4F5857"/>
<path d="M5.03199 16.771C5.74168 16.771 6.31699 16.1957 6.31699 15.486C6.31699 14.7763 5.74168 14.201 5.03199 14.201C4.32231 14.201 3.74699 14.7763 3.74699 15.486C3.74699 16.1957 4.32231 16.771 5.03199 16.771Z" fill="#4F5857"/>
<path d="M10 16.771C10.7097 16.771 11.285 16.1957 11.285 15.486C11.285 14.7763 10.7097 14.201 10 14.201C9.29031 14.201 8.715 14.7763 8.715 15.486C8.715 16.1957 9.29031 16.771 10 16.771Z" fill="#4F5857"/>
</svg>
