<svg width="24" height="22" viewBox="0 0 24 22" fill="none" xmlns="http://www.w3.org/2000/svg">
<mask id="path-1-inside-1_10_310" fill="white">
<path d="M20.0548 0.328767C20.0548 0.147194 19.9076 0 19.726 0C19.5445 0 19.3973 0.147194 19.3973 0.328767V8.21918C19.3973 8.40075 19.5445 8.54795 19.726 8.54795C19.9076 8.54795 20.0548 8.40075 20.0548 8.21918V0.328767Z"/>
</mask>
<path d="M19.726 1C19.3553 1 19.0548 0.699479 19.0548 0.328767H21.0548C21.0548 -0.405091 20.4599 -1 19.726 -1V1ZM19.0548 0.328767V8.21918H21.0548V0.328767H19.0548ZM19.0548 8.21918C19.0548 7.84847 19.3553 7.54795 19.726 7.54795V9.54795C20.4599 9.54795 21.0548 8.95304 21.0548 8.21918H19.0548ZM19.726 7.54795C20.0967 7.54795 20.3973 7.84847 20.3973 8.21918H18.3973C18.3973 8.95304 18.9922 9.54795 19.726 9.54795V7.54795ZM20.3973 8.21918V0.328767H18.3973V8.21918H20.3973ZM20.3973 0.328767C20.3973 0.699479 20.0967 1 19.726 1V-1C18.9922 -1 18.3973 -0.405091 18.3973 0.328767H20.3973Z" fill="#4F5857" mask="url(#path-1-inside-1_10_310)"/>
<mask id="path-3-inside-2_10_310" fill="white">
<path d="M23.6712 4.60272C23.8528 4.60272 24 4.45553 24 4.27396C24 4.09238 23.8528 3.94519 23.6712 3.94519L15.7808 3.94519C15.5992 3.94519 15.4521 4.09238 15.4521 4.27396C15.4521 4.45553 15.5992 4.60272 15.7808 4.60272L23.6712 4.60272Z"/>
</mask>
<path d="M23 4.27396C23 3.90325 23.3005 3.60272 23.6712 3.60272V5.60272C24.4051 5.60272 25 5.00782 25 4.27396H23ZM23.6712 3.60272L15.7808 3.60272V5.60272H23.6712V3.60272ZM15.7808 3.60272C16.1515 3.60272 16.4521 3.90325 16.4521 4.27396L14.4521 4.27396C14.4521 5.00781 15.047 5.60272 15.7808 5.60272V3.60272ZM16.4521 4.27396C16.4521 4.64467 16.1515 4.94519 15.7808 4.94519V2.94519C15.047 2.94519 14.4521 3.5401 14.4521 4.27396L16.4521 4.27396ZM15.7808 4.94519H23.6712V2.94519L15.7808 2.94519V4.94519ZM23.6712 4.94519C23.3005 4.94519 23 4.64467 23 4.27396H25C25 3.5401 24.4051 2.94519 23.6712 2.94519V4.94519Z" fill="#4F5857" mask="url(#path-3-inside-2_10_310)"/>
<mask id="path-5-inside-3_10_310" fill="white">
<path d="M10.5205 4.27393H1.31507C0.966291 4.27393 0.631798 4.41248 0.385175 4.6591C0.138552 4.90572 0 5.24022 0 5.58899V20.0547C0 20.4035 0.138552 20.738 0.385175 20.9846C0.631798 21.2313 0.966291 21.3698 1.31507 21.3698H18.411C18.7597 21.3698 19.0942 21.2313 19.3409 20.9846C19.5875 20.738 19.726 20.4035 19.726 20.0547V13.4794"/>
</mask>
<path d="M10.5205 3.27393H1.31507V5.27393H10.5205V3.27393ZM1.31507 3.27393C0.701073 3.27393 0.112227 3.51783 -0.321932 3.95199L1.09228 5.36621C1.15137 5.30712 1.23151 5.27393 1.31507 5.27393V3.27393ZM-0.321932 3.95199C-0.756091 4.38615 -1 4.975 -1 5.58899H1C1 5.50543 1.03319 5.42529 1.09228 5.36621L-0.321932 3.95199ZM-1 5.58899V20.0547H1V5.58899H-1ZM-1 20.0547C-1 20.6687 -0.756092 21.2576 -0.321932 21.6917L1.09228 20.2775C1.0332 20.2184 1 20.1383 1 20.0547H-1ZM-0.321932 21.6917C0.112229 22.1259 0.701076 22.3698 1.31507 22.3698V20.3698C1.23151 20.3698 1.15137 20.3366 1.09228 20.2775L-0.321932 21.6917ZM1.31507 22.3698H18.411V20.3698H1.31507V22.3698ZM18.411 22.3698C19.025 22.3698 19.6138 22.1259 20.048 21.6917L18.6337 20.2775C18.5747 20.3366 18.4945 20.3698 18.411 20.3698V22.3698ZM20.048 21.6917C20.4821 21.2576 20.726 20.6687 20.726 20.0547H18.726C18.726 20.1383 18.6928 20.2185 18.6337 20.2775L20.048 21.6917ZM20.726 20.0547V13.4794H18.726V20.0547H20.726Z" fill="#4F5857" mask="url(#path-5-inside-3_10_310)"/>
<mask id="path-7-inside-4_10_310" fill="white">
<path d="M0 6.90405L9.86301 14.1369L15.1233 10.1917"/>
</mask>
<path d="M9.86301 14.1369L9.27165 14.9433L9.86971 15.3819L10.463 14.9369L9.86301 14.1369ZM-0.591364 7.71046L9.27165 14.9433L10.4544 13.3305L0.591364 6.09765L-0.591364 7.71046ZM10.463 14.9369L15.7233 10.9917L14.5233 9.39172L9.26301 13.3369L10.463 14.9369Z" fill="#4F5857" mask="url(#path-7-inside-4_10_310)"/>
</svg>
