<svg id="Layer_1" data-name="Layer 1" xmlns="http://www.w3.org/2000/svg" viewBox="0 0 512 512"><defs><style>.cls-1{fill:#141f38;}</style></defs><title>dollar-bill-outline</title><path class="cls-1" d="M448,102.4H64a64.19,64.19,0,0,0-64,64V345.6a64.19,64.19,0,0,0,64,64H448a64.19,64.19,0,0,0,64-64V166.4A64.19,64.19,0,0,0,448,102.4Zm-422.4,64A38.44,38.44,0,0,1,64,128H89.6a64.07,64.07,0,0,1-64,64ZM64,384a38.44,38.44,0,0,1-38.4-38.4V320a64.07,64.07,0,0,1,64,64Zm422.4-38.4A38.44,38.44,0,0,1,448,384H422.4a64.07,64.07,0,0,1,64-64Zm0-51.2A89.6,89.6,0,0,0,396.8,384H115.2a89.6,89.6,0,0,0-89.6-89.6V217.6A89.6,89.6,0,0,0,115.2,128H396.8a89.6,89.6,0,0,0,89.6,89.6Zm0-102.4a64.07,64.07,0,0,1-64-64H448a38.44,38.44,0,0,1,38.4,38.4ZM256,153.6A102.4,102.4,0,1,0,358.4,256,102.4,102.4,0,0,0,256,153.6Zm0,179.2A76.8,76.8,0,1,1,332.8,256,76.89,76.89,0,0,1,256,332.8Zm32-61.65c0,12.67-8.28,21.43-23,24.15v5.09c0,3.32-1.06,4.38-4.38,4.38h-9c-3.2,0-4.38-1.06-4.38-4.38v-4.85c-11.6-1.78-19.17-7.58-22.84-17.28q-1.6-4.62,3.19-6.39l8.05-2.84c3.43-1.3,5.09-.59,6.63,2.84,1.89,4.86,6.28,7.22,13,7.22,9,0,13.5-2.49,13.5-7.58,0-4.73-4.62-6.27-14-7.22-6.63-.83-10.06-1.18-16.1-3.55a20.6,20.6,0,0,1-7.34-4.14c-3.67-3.2-6.75-9.23-6.75-16.93,0-12.43,7.93-21,22.61-23.32v-4.85c0-3.2,1.19-4.26,4.38-4.26h9c3.31,0,4.38,1.07,4.38,4.26v4.85c9.59,1.66,16.34,6.75,20.36,15.39,1.78,3.32.95,5.09-2.72,6.63L274.47,242c-3.19,1.42-4.73.95-6.51-2.37-2.37-4.62-5.44-6.87-12-6.87-8.41,0-12,1.77-12,6.87,0,4.38,5,6,14.09,7a82.33,82.33,0,0,1,13.49,2.25,23,23,0,0,1,6.4,2.72C283.35,254.82,288.45,261,288,271.15Z"/></svg>