<svg width="100" height="100" viewBox="0 0 100 100" fill="none" xmlns="http://www.w3.org/2000/svg">
<path d="M31.4125 93.75C69.15 93.75 89.7937 62.4812 89.7937 35.4125C89.7937 34.5375 89.7938 33.65 89.7563 32.775C93.7754 29.8655 97.2441 26.2634 100 22.1375C96.2457 23.7928 92.2673 24.8838 88.1938 25.375C92.4846 22.8102 95.6983 18.7748 97.2375 14.0187C93.2062 16.407 88.7938 18.0836 84.1937 18.975C81.1011 15.6814 77.0088 13.4995 72.5505 12.7672C68.0923 12.035 63.517 12.7933 59.5334 14.9246C55.5497 17.056 52.38 20.4414 50.5153 24.5566C48.6506 28.6718 48.1949 33.2871 49.2188 37.6875C41.0609 37.2784 33.0801 35.1592 25.794 31.4671C18.5079 27.7751 12.0793 22.5928 6.925 16.2562C4.30838 20.7755 3.50984 26.1213 4.69154 31.2079C5.87324 36.2946 8.94659 40.7408 13.2875 43.6437C10.0346 43.5332 6.85326 42.6597 4 41.0937V41.375C4.00561 46.1093 5.64567 50.6964 8.64296 54.361C11.6403 58.0256 15.8109 60.543 20.45 61.4875C18.6891 61.9726 16.8702 62.2144 15.0438 62.2063C13.7561 62.2102 12.4711 62.0909 11.2062 61.85C12.5174 65.9254 15.0705 69.4885 18.5078 72.0405C21.9451 74.5924 26.0946 76.0053 30.375 76.0813C23.1035 81.7925 14.1213 84.89 4.875 84.875C3.24575 84.8819 1.61764 84.7879 0 84.5937C9.38447 90.5766 20.2831 93.7534 31.4125 93.75V93.75Z" fill="#3182CE"/>
</svg>
